<svg xmlns="http://www.w3.org/2000/svg" xmlns:xlink="http://www.w3.org/1999/xlink" width="428" height="414" viewBox="0 0 428 414">
  <defs>
    <clipPath id="clip-ad_illusration">
      <rect width="428" height="414"/>
    </clipPath>
  </defs>
  <g id="ad_illusration" data-name="ad illusration" clip-path="url(#clip-ad_illusration)">
    <g id="Group_58" data-name="Group 58" transform="translate(966.497 -3609.761)">
      <path id="Rectangle_7" data-name="Rectangle 7" d="M0,0H387.747a0,0,0,0,1,0,0V260.844a12,12,0,0,1-12,12H12a12,12,0,0,1-12-12V0A0,0,0,0,1,0,0Z" transform="translate(-926.244 3654.226)" fill="#e2e1ff"/>
      <path id="Rectangle_8" data-name="Rectangle 8" d="M10.28,0H379.747a8,8,0,0,1,8,8V20.561a0,0,0,0,1,0,0H0a0,0,0,0,1,0,0V10.28A10.28,10.28,0,0,1,10.28,0Z" transform="translate(-926.244 3633.665)" fill="#9a6afe"/>
      <rect id="Rectangle_9" data-name="Rectangle 9" width="362.135" height="19.965" rx="9.982" transform="translate(-913.14 3667.635)" fill="#fff"/>
      <path id="Path_50" data-name="Path 50" d="M-906.213,3874.407h137.172a6.929,6.929,0,0,0,6.927-6.931h0a6.929,6.929,0,0,0-6.927-6.931H-906.213a6.929,6.929,0,0,0-6.927,6.931h0A6.929,6.929,0,0,0-906.213,3874.407Z" fill="#fff"/>
      <rect id="Rectangle_10" data-name="Rectangle 10" width="151.026" height="13.862" rx="6.931" transform="translate(-913.14 3886.196)" fill="#fff"/>
      <rect id="Rectangle_11" data-name="Rectangle 11" width="153.272" height="133.507" rx="24.719" transform="translate(-913.14 3708.304)" fill="#f3d4f8"/>
      <rect id="Rectangle_12" data-name="Rectangle 12" width="47.853" height="47.88" rx="12" transform="translate(-598.858 3708.304)" fill="#fff"/>
      <rect id="Rectangle_13" data-name="Rectangle 13" width="47.853" height="47.88" rx="12" transform="translate(-598.858 3776.898)" fill="#f3d4f8"/>
      <rect id="Rectangle_14" data-name="Rectangle 14" width="47.853" height="47.88" rx="12" transform="translate(-736.242 3841.443)" fill="#fff"/>
      <rect id="Rectangle_15" data-name="Rectangle 15" width="47.853" height="47.88" rx="12" transform="translate(-598.858 3845.493)" fill="#fff"/>
      <rect id="Rectangle_16" data-name="Rectangle 16" width="47.853" height="47.88" rx="12" transform="translate(-669.716 3708.058)" fill="#f3d4f8"/>
      <rect id="Rectangle_17" data-name="Rectangle 17" width="47.853" height="47.88" rx="12" transform="translate(-669.716 3776.652)" fill="#fff"/>
      <rect id="Rectangle_18" data-name="Rectangle 18" width="47.853" height="47.88" rx="12" transform="translate(-669.716 3845.247)" fill="#f3d4f8"/>
      <rect id="Rectangle_19" data-name="Rectangle 19" width="47.853" height="47.88" rx="12" transform="translate(-739.715 3708.058)" fill="#fff"/>
      <rect id="Rectangle_20" data-name="Rectangle 20" width="47.853" height="47.88" rx="12" transform="translate(-739.715 3776.652)" fill="#fff"/>
      <circle id="Ellipse_2" data-name="Ellipse 2" cx="3.799" cy="3.799" r="3.799" transform="translate(-555.265 3648.804) rotate(-89.91)" fill="#f3d4f8"/>
      <circle id="Ellipse_3" data-name="Ellipse 3" cx="3.799" cy="3.799" r="3.799" transform="translate(-568.816 3648.805) rotate(-89.91)" fill="#fe8"/>
      <circle id="Ellipse_4" data-name="Ellipse 4" cx="3.799" cy="3.799" r="3.799" transform="translate(-582.367 3648.805) rotate(-89.91)" fill="#d4d4f4"/>
      <g id="Group_47" data-name="Group 47">
        <g id="Group_35" data-name="Group 35">
          <ellipse id="Ellipse_5" data-name="Ellipse 5" cx="28.254" cy="28.27" rx="28.254" ry="28.27" transform="translate(-715.626 3714.824)" fill="#fff"/>
          <path id="Path_51" data-name="Path 51" d="M-687.372,3774.227a21.293,21.293,0,0,0-21.286-21.3H-714.6C-710.278,3771.365-687.372,3774.227-687.372,3774.227Z" fill="#f8e3fc"/>
          <path id="Path_52" data-name="Path 52" d="M-712.854,3734.525h50.964a1.613,1.613,0,0,0,1.743-1.439v-1.776c0-10.151-15.207-17.02-27.225-17.02h0c-11.953,0-27.224,7.28-27.224,17.02v1.776A1.612,1.612,0,0,0-712.854,3734.525Z" fill="#f0f0ff"/>
          <g id="Group_32" data-name="Group 32">
            <g id="Group_31" data-name="Group 31">
              <path id="Path_53" data-name="Path 53" d="M-675.377,3773.03A32.264,32.264,0,0,1-717.29,3755.1a32.294,32.294,0,0,1,17.923-41.937,32.263,32.263,0,0,1,41.913,17.932A32.3,32.3,0,0,1-675.377,3773.03Zm-20.886-52.125a23.938,23.938,0,0,0-13.285,31.086,23.914,23.914,0,0,0,31.068,13.293A23.938,23.938,0,0,0-665.2,3734.2,23.916,23.916,0,0,0-696.263,3720.905Z" fill="#191942"/>
            </g>
            <path id="Path_54" data-name="Path 54" d="M-720.425,3826.81h0a5.254,5.254,0,0,1-2.762-6.9l21.2-49.6a3.293,3.293,0,0,1,4.323-1.734l3.6,1.539a3.3,3.3,0,0,1,1.733,4.326l-21.2,49.6A5.25,5.25,0,0,1-720.425,3826.81Z" fill="#191942"/>
          </g>
          <g id="Group_33" data-name="Group 33">
            <path id="Path_55" data-name="Path 55" d="M-683.838,3761.994a.222.222,0,0,0,.05,0,19.226,19.226,0,0,0,15.633-18.894,19.244,19.244,0,0,0-19.217-19.229A19.278,19.278,0,0,0-706.2,3739.22a.267.267,0,0,0,.209.315.267.267,0,0,0,.315-.208,18.74,18.74,0,0,1,18.3-14.926,18.71,18.71,0,0,1,18.683,18.694,18.693,18.693,0,0,1-15.2,18.369.267.267,0,0,0-.213.312A.266.266,0,0,0-683.838,3761.994Z" fill="#191942"/>
          </g>
          <g id="Group_34" data-name="Group 34">
            <path id="Path_56" data-name="Path 56" d="M-693.535,3761.3a.268.268,0,0,0,.253-.181.267.267,0,0,0-.166-.339,18.8,18.8,0,0,1-11.669-11.817.266.266,0,0,0-.337-.17.267.267,0,0,0-.17.337,19.329,19.329,0,0,0,12,12.155A.265.265,0,0,0-693.535,3761.3Z" fill="#191942"/>
          </g>
        </g>
        <g id="Group_46" data-name="Group 46">
          <path id="Path_57" data-name="Path 57" d="M-587.067,3995.463l-19.71,5.548s-30.992-92.781-30.992-91.567.373,91.567.373,91.567l-23.337-2.8-5.913-114.093,56.58,10.416Z" fill="#9a6afe"/>
          <path id="Path_58" data-name="Path 58" d="M-642.239,4000.43v8.614h-9.346l-1.307-9.9Z" fill="#febf8c"/>
          <path id="Path_59" data-name="Path 59" d="M-642.239,4009.044v11.769H-668.2s0-3.549,8.961-6.725c7.738-2.742,7.655-5.044,7.655-5.044Z" fill="#fff"/>
          <circle id="Ellipse_6" data-name="Ellipse 6" cx="2.569" cy="2.569" r="2.569" transform="translate(-650.138 4015.706) rotate(-89.914)" fill="#f3d4f8"/>
          <rect id="Rectangle_21" data-name="Rectangle 21" width="25.962" height="2.927" transform="translate(-642.239 4023.74) rotate(-180)" fill="#191942"/>
          <g id="Group_36" data-name="Group 36">
            <path id="Path_60" data-name="Path 60" d="M-651.668,4009.3c-.49-.16-4.794-1.611-5.182-3.234a1.1,1.1,0,0,1,.346-1.07,1.3,1.3,0,0,1,1.159-.4c1.817.27,3.908,4.157,4,4.322a.267.267,0,0,1-.032.3.267.267,0,0,1-.2.095A.268.268,0,0,1-651.668,4009.3Zm-4.458-3.926a.564.564,0,0,0-.2.568c.073.309.495.968,2.489,1.911.616.292,1.226.534,1.668.7-.757-1.263-2.167-3.265-3.251-3.427a.846.846,0,0,0-.132-.01A.78.78,0,0,0-656.126,4005.372Z" fill="#191942"/>
          </g>
          <g id="Group_37" data-name="Group 37">
            <path id="Path_61" data-name="Path 61" d="M-656.665,4012.329a1.1,1.1,0,0,1-.787-.8,1.3,1.3,0,0,1,.184-1.212c1.082-1.485,5.494-1.536,5.681-1.537h0a.267.267,0,0,1,.247.165.269.269,0,0,1-.061.293c-.346.338-3.261,3.131-4.954,3.131A1.268,1.268,0,0,1-656.665,4012.329Zm-.171-1.7a.772.772,0,0,0-.106.737.563.563,0,0,0,.408.445c.307.078,1.086.01,2.846-1.32.544-.412,1.042-.839,1.394-1.154C-653.764,4009.422-656.191,4009.743-656.836,4010.629Z" fill="#191942"/>
          </g>
          <g id="Group_38" data-name="Group 38">
            <path id="Path_62" data-name="Path 62" d="M-646.684,4021.08a.267.267,0,0,0,.258-.2,8.218,8.218,0,0,1,4.292-5.053.267.267,0,0,0,.14-.351.267.267,0,0,0-.351-.14,8.636,8.636,0,0,0-4.6,5.408.268.268,0,0,0,.191.327A.331.331,0,0,0-646.684,4021.08Z" fill="#191942"/>
          </g>
          <g id="Group_39" data-name="Group 39">
            <path id="Path_63" data-name="Path 63" d="M-660.8,4021.08a.267.267,0,0,0,.267-.267v-6.184a.267.267,0,0,0-.267-.267.267.267,0,0,0-.267.267v6.184A.267.267,0,0,0-660.8,4021.08Z" fill="#191942"/>
          </g>
          <path id="Path_64" data-name="Path 64" d="M-602.615,3999.808l2.567,9.258h9.346l-1.455-12.169Z" fill="#febf8c"/>
          <path id="Path_65" data-name="Path 65" d="M-600.048,4009.066v11.769h25.962s0-3.55-8.962-6.726c-7.737-2.742-7.654-5.043-7.654-5.043Z" fill="#fff"/>
          <circle id="Ellipse_7" data-name="Ellipse 7" cx="2.569" cy="2.569" r="2.569" transform="matrix(0.001, -1, 1, 0.001, -597.294, 4015.727)" fill="#f3d4f8"/>
          <rect id="Rectangle_22" data-name="Rectangle 22" width="25.962" height="2.927" transform="translate(-600.048 4020.834)" fill="#191942"/>
          <g id="Group_40" data-name="Group 40">
            <path id="Path_66" data-name="Path 66" d="M-590.907,4009.237a.267.267,0,0,1-.031-.3c.088-.166,2.179-4.052,4-4.323a1.3,1.3,0,0,1,1.158.4,1.094,1.094,0,0,1,.346,1.07c-.387,1.622-4.692,3.073-5.181,3.234a.312.312,0,0,1-.083.013A.267.267,0,0,1-590.907,4009.237Zm4.043-4.091c-1.083.161-2.493,2.163-3.25,3.426.442-.165,1.051-.408,1.668-.7,1.994-.943,2.415-1.6,2.489-1.911a.565.565,0,0,0-.2-.567.78.78,0,0,0-.571-.258A.856.856,0,0,0-586.864,4005.146Z" fill="#191942"/>
          </g>
          <g id="Group_41" data-name="Group 41">
            <path id="Path_67" data-name="Path 67" d="M-590.889,4009.257a.266.266,0,0,1-.06-.293.267.267,0,0,1,.247-.166h0c.187,0,4.6.053,5.68,1.538a1.3,1.3,0,0,1,.184,1.212,1.1,1.1,0,0,1-.786.8,1.277,1.277,0,0,1-.313.036C-587.627,4012.387-590.543,4009.595-590.889,4009.257Zm2.29,1.255c1.76,1.33,2.538,1.4,2.846,1.321a.566.566,0,0,0,.408-.445.774.774,0,0,0-.106-.737c-.646-.886-3.073-1.207-4.542-1.293C-589.641,4009.673-589.144,4010.1-588.6,4010.512Z" fill="#191942"/>
          </g>
          <g id="Group_42" data-name="Group 42">
            <path id="Path_68" data-name="Path 68" d="M-595.6,4021.1a.255.255,0,0,0,.068-.009.267.267,0,0,0,.191-.326,8.64,8.64,0,0,0-4.6-5.409.268.268,0,0,0-.351.14.267.267,0,0,0,.139.351,8.245,8.245,0,0,1,4.292,5.053A.269.269,0,0,0-595.6,4021.1Z" fill="#191942"/>
          </g>
          <g id="Group_43" data-name="Group 43">
            <path id="Path_69" data-name="Path 69" d="M-581.485,4021.1a.268.268,0,0,0,.268-.267v-6.184a.268.268,0,0,0-.268-.268.268.268,0,0,0-.267.268v6.184A.268.268,0,0,0-581.485,4021.1Z" fill="#191942"/>
          </g>
          <path id="Path_70" data-name="Path 70" d="M-637.769,3909.444s11.762,3.02,13.256,9.184,4.433,42.671,4.433,42.671Z" fill="#825af3"/>
          <path id="Path_71" data-name="Path 71" d="M-610.066,3894.532l-56.58-10.416s-11.451-.25-8.09-16.495S-663.161,3817-663.161,3817l33.334,4.548a22.829,22.829,0,0,1,19.255,17.948l7.957,38.03S-597.673,3889.117-610.066,3894.532Z" fill="#fe8"/>
          <path id="Path_72" data-name="Path 72" d="M-634.035,3812.79l1.585,8.4-12.581-1.717,1.475-6.688Z" fill="#febf8c"/>
          <ellipse id="Ellipse_8" data-name="Ellipse 8" cx="11.157" cy="11.164" rx="11.157" ry="11.164" transform="translate(-651.239 3792.063)" fill="#febf8c"/>
          <path id="Path_73" data-name="Path 73" d="M-651.646,3819.337l-28.939-5.418-15.869-21.856-12.883,7.472,9.33,20.813a28.531,28.531,0,0,0,19.581,16.124l23.47,5.45Z" fill="#fe8"/>
          <path id="Path_74" data-name="Path 74" d="M-610.572,3839.5l11.369,15.647a12.682,12.682,0,0,1-1.465,16.59l-2.63,2.531Z" fill="#f4df78"/>
          <path id="Path_75" data-name="Path 75" d="M-668.263,3839.3s2.675-7.721-3.361-7.6c-6.72.138-20.528-1.032-20.528-1.032s4.816,4.01,9.518,5.2S-668.263,3839.3-668.263,3839.3Z" fill="#f4df78"/>
          <circle id="Ellipse_9" data-name="Ellipse 9" cx="5.686" cy="5.686" r="5.686" transform="translate(-631.466 3785.964)" fill="#191942"/>
          <ellipse id="Ellipse_10" data-name="Ellipse 10" cx="11.157" cy="11.164" rx="11.157" ry="11.164" transform="translate(-648.746 3791.176)" fill="#191942"/>
          <circle id="Ellipse_11" data-name="Ellipse 11" cx="3.047" cy="3.047" r="3.047" transform="translate(-648.751 3808.429) rotate(-89.928)" fill="#febf8c"/>
          <circle id="Ellipse_12" data-name="Ellipse 12" cx="1.575" cy="1.575" r="1.575" transform="translate(-652.813 3799.504)" fill="#febf8c"/>
          <g id="Group_44" data-name="Group 44">
            <path id="Path_76" data-name="Path 76" d="M-647.166,3806.312a.268.268,0,0,0,.193-.083l2.135-2.242a.266.266,0,0,0-.009-.377.267.267,0,0,0-.378.009l-2.135,2.241a.267.267,0,0,0,.009.378A.264.264,0,0,0-647.166,3806.312Z" fill="#191942"/>
          </g>
          <g id="Group_45" data-name="Group 45">
            <path id="Path_77" data-name="Path 77" d="M-644.553,3805.752a.266.266,0,0,0,.251-.177.266.266,0,0,0-.16-.342l-1.546-.56a.267.267,0,0,0-.342.16.267.267,0,0,0,.16.342l1.546.56A.271.271,0,0,0-644.553,3805.752Z" fill="#191942"/>
          </g>
          <path id="Path_78" data-name="Path 78" d="M-698.214,3793.083l-9.866-10.512-4.232,7.95.857,1.542,4.319,6.2Z" fill="#febf8c"/>
          <path id="Path_79" data-name="Path 79" d="M-711.333,3792.236l-.978-1.715.554,2.735Z" fill="#f4b382"/>
          <path id="Path_80" data-name="Path 80" d="M-643.771,3813.764a26.578,26.578,0,0,1,3.264.626c2.022.5.425,3.9-4.524,5.088Z" fill="#f4b382"/>
          <path id="Path_81" data-name="Path 81" d="M-655.22,3998.871s-1.877-20.294-6.651-22.62l1.138,21.958Z" fill="#825af3"/>
          <path id="Path_82" data-name="Path 82" d="M-592.157,3996.9l-9.891,4.959-.568-2.048Z" fill="#f4b382"/>
          <path id="Path_83" data-name="Path 83" d="M-642.239,4000.43v1.972l-10.653-3.259Z" fill="#f4b382"/>
        </g>
      </g>
      <g id="Group_54" data-name="Group 54">
        <g id="Group_48" data-name="Group 48">
          <path id="Path_84" data-name="Path 84" d="M-897.576,3853.55c-9.465,11.48-6.766,15.69-5.257,20.1,2.928,8.55,1.959,16.8-.25,23.84-2.978,9.52-8.215,16.83-9.125,19.66a.12.12,0,0,0-.02.08,54.543,54.543,0,0,0-2.258,9.84h-6.177l-.849-6.95-5.037-40.87s-.96-6.45-2.019-12.69c-.77-4.55-1.589-8.97-2.129-10.75-1.669-5.46-2.489-13.59,2.1-18.38s5.287-16.05,5.287-17.77,1.729-27.57,20.668-23.74c0,0,7.845,1.91,4.017,15.7,0,0-4.017,8.23,1.05,13.4S-888.1,3842.06-897.576,3853.55Z" fill="#c2acfc"/>
        </g>
        <g id="Group_49" data-name="Group 49">
          <path id="Path_85" data-name="Path 85" d="M-857.779,3886.27c-6.217,3.82-3.328,10.97-3.328,10.97-.01,13.59-9.755,16.22-14.042,13.59s-10.964-5-13.342,4.06-9.295,11.2-9.295,11.2c-.7.33-1.349.65-1.949.98h-13.942a38.247,38.247,0,0,1,1.449-9.84.12.12,0,0,1,.02-.08,72.285,72.285,0,0,1,9.125-19.66c.54-.86,1.119-1.74,1.719-2.63,12.923-19.16,25.495-25.76,38.848-25.89S-851.563,3882.46-857.779,3886.27Z" fill="#cfc2ff"/>
        </g>
        <g id="Group_50" data-name="Group 50">
          <path id="Path_86" data-name="Path 86" d="M-919.763,3902.94l-1.749,17.18-.71,6.95h-11.283a15.212,15.212,0,0,1-.99-8.81c1.909-11.11-8.045-13.6-10.334-13.98s-17.22-6.51-14.931-28.91c0,0,.769-14.36-1.909-19.53s-9.375-20.67,0-25.46,15.881,3.83,19.329,12.64c0,0,2.678,10.14,4.967,12.63a58.073,58.073,0,0,1,8.8,10.91C-923.781,3874.3-919.024,3886.22-919.763,3902.94Z" fill="#cfc2ff"/>
        </g>
        <g id="Group_51" data-name="Group 51">
          <path id="Path_87" data-name="Path 87" d="M-925.66,3927.07c-.08-9.48-.729-25.32-3.928-34.63-2.328-6.76-5.846-11.57-9.574-16.66-5.507-7.53-11.2-15.31-13.2-30.03a.33.33,0,0,1,.269-.36.319.319,0,0,1,.36.28c1.989,14.55,7.626,22.27,13.083,29.73,3.757,5.13,7.3,9.98,9.664,16.83,3.238,9.4,3.888,25.32,3.968,34.84Z" fill="#191942"/>
        </g>
        <g id="Group_52" data-name="Group 52">
          <path id="Path_88" data-name="Path 88" d="M-908.18,3808.91a61.575,61.575,0,0,0-3.508,28.74c1.019,9.09-.02,16.85-1.019,24.36-.83,6.24-1.619,12.14-1.15,18.33.48,6.35-.619,15.81-1.789,25.82-.849,7.29-1.709,14.74-1.909,20.91h-.639c.2-6.2,1.069-13.68,1.919-20.99,1.159-9.97,2.258-19.4,1.779-25.69-.47-6.26.319-12.19,1.159-18.47,1-7.47,2.029-15.19,1.009-24.19a62.313,62.313,0,0,1,3.558-29.08.33.33,0,0,1,.43-.16A.319.319,0,0,1-908.18,3808.91Z" fill="#191942"/>
        </g>
        <g id="Group_53" data-name="Group 53">
          <path id="Path_89" data-name="Path 89" d="M-863.036,3878.92c-10.424,2.13-15.321,8.22-20.5,14.66-3.548,4.39-7.206,8.94-12.833,12.57-7.086,4.57-10.364,12.14-11.863,17.69-.31,1.12-.55,2.21-.75,3.23h-.659c.21-1.08.47-2.22.789-3.4,1.53-5.65,4.887-13.38,12.143-18.06,5.537-3.57,9.165-8.08,12.673-12.43,5.257-6.54,10.224-12.71,20.868-14.89a.323.323,0,0,1,.38.25A.326.326,0,0,1-863.036,3878.92Z" fill="#191942"/>
        </g>
      </g>
      <g id="Group_55" data-name="Group 55">
        <path id="Path_90" data-name="Path 90" d="M-755.765,3623.133l11.608,6.352-11.608,6.352-6.349,11.615-6.349-11.615-11.608-6.352,11.608-6.352,6.349-11.615Z" fill="#fe8"/>
        <path id="Path_91" data-name="Path 91" d="M-762.114,3649.21a1.758,1.758,0,0,1-1.541-.914l-6.1-11.164-11.157-6.1a1.758,1.758,0,0,1-.914-1.542,1.757,1.757,0,0,1,.914-1.541l11.157-6.1,6.1-11.164a1.758,1.758,0,0,1,1.541-.914,1.757,1.757,0,0,1,1.541.914l6.1,11.164,11.156,6.1a1.755,1.755,0,0,1,.914,1.541,1.756,1.756,0,0,1-.914,1.542l-11.156,6.1-6.1,11.164A1.757,1.757,0,0,1-762.114,3649.21Zm-14.3-19.725,8.79,4.811a1.751,1.751,0,0,1,.7.7l4.808,8.8,4.808-8.8a1.751,1.751,0,0,1,.7-.7l8.791-4.811-8.791-4.81a1.753,1.753,0,0,1-.7-.7l-4.808-8.8-4.808,8.8a1.753,1.753,0,0,1-.7.7Z" fill="#fe8"/>
      </g>
      <g id="Group_56" data-name="Group 56">
        <path id="Path_92" data-name="Path 92" d="M-893.951,3938.651a11.59,11.59,0,0,1-11.574-11.581,11.59,11.59,0,0,1,11.574-11.58,11.59,11.59,0,0,1,11.573,11.58A11.59,11.59,0,0,1-893.951,3938.651Zm0-18.472a6.9,6.9,0,0,0-6.888,6.891,6.9,6.9,0,0,0,6.888,6.892,6.9,6.9,0,0,0,6.887-6.892A6.9,6.9,0,0,0-893.951,3920.179Z" fill="#fe8"/>
      </g>
      <g id="Group_57" data-name="Group 57">
        <path id="Path_93" data-name="Path 93" d="M-641.21,3674.678l7.04,3.852-7.04,3.853-3.85,7.044-3.85-7.044-7.04-3.853,7.04-3.852,3.85-7.044Z" fill="#9a6afe"/>
      </g>
    </g>
  </g>
</svg>
